<svg id="Layer_1" enable-background="new 0 0 512 512" height="64" viewBox="0 0 512 512" width="64" xmlns="http://www.w3.org/2000/svg"><g><g><g><g><g id="XMLID_1415_"><g id="XMLID_1416_"><g id="XMLID_1417_"><g id="XMLID_1418_"><g id="XMLID_1419_"><g id="XMLID_1420_"><g id="XMLID_1421_"><g id="XMLID_1422_"><g id="XMLID_1423_"><g id="XMLID_1424_"><g id="XMLID_1425_"><g id="XMLID_1426_"><g id="XMLID_1427_"><g id="XMLID_1428_"><g id="XMLID_1639_"><circle cx="256" cy="256" fill="#00e4ef" r="256"/></g></g></g></g></g></g></g></g></g></g></g></g></g></g></g></g></g></g><path d="m511.961 259.087-240.961-240.961-24.425 38.724-39.167 24.868 39.704 38.58-53.973 86.757 27.078 30.73c0 55.836-18.406 150.078-19.295 160.638l-63.595 66.999 31.257 31.257c27.277 9.91 56.714 15.321 87.416 15.321 140.353 0 254.304-112.953 255.961-252.913z" fill="#5ecbf1"/><g><path d="m256 18.126h-15v33.592h-33.592v30h33.592v43.392h30l-5.56-49.586z" fill="#daeaec"/><path d="m304.59 51.72v30h-33.59v43.39h-15v-106.98h15v33.59z" fill="#5e5e5e"/><g><path d="m296.13 334.897c-11.512-32.731-9.965-47.539-9.965-103.375l1.264-45.126h-73.475v45.126c0 55.836-12.394 64.43-23.905 97.161-7.38 20.978-11.153 43.521-11.153 52.266h154.21c-.001-8.744-29.596-25.073-36.976-46.052z" fill="#fff"/><path d="m333.105 380.949h-77.105v-194.553h42.046v45.126c0 55.836 12.394 64.43 23.905 97.161 7.381 20.979 11.154 43.522 11.154 52.266z" fill="#3a3a3a"/></g><path d="m195.669 114.186 20.161 75.871h40.17l38.552-75.871z" fill="#fff"/><path d="m316.33 114.184-20.16 75.877h-40.17v-75.875z" fill="#3a3a3a"/><path d="m193.139 173.07h125.722v33.985h-125.722z" fill="#f1f4f6"/><path d="m256 173.066h62.859v33.987h-62.859z" fill="#5e5e5e"/><g><path d="m256 418.011h-101.794v-41.4h101.794l83.469 33.947z" fill="#daeaec"/><path d="m256 376.606h101.793v41.402h-101.793z" fill="#5e5e5e"/><path d="m256 465.422h-118.674v-49.03h118.674l16.217 41.821z" fill="#f1f4f6"/><g><path d="m256 416.39h118.674v49.029h-118.674z" fill="#3a3a3a"/></g></g></g></g></svg>