<svg id="Capa_1" enable-background="new 0 0 512 512" height="64" viewBox="0 0 512 512" width="64" xmlns="http://www.w3.org/2000/svg"><g><path d="m497 482h-15v-46c0-8.291-6.709-15-15-15s-15 6.709-15 15v61c0 8.291 6.709 15 15 15h30c8.291 0 15-6.709 15-15s-6.709-15-15-15z" fill="#b3ccff"/><path d="m467 361h-91v90h91c24.814 0 45-20.186 45-45s-20.186-45-45-45z" fill="#404b80"/><path d="m467 421h-91c-8.284 0-15-6.716-15-15 0-8.284 6.716-15 15-15h91c8.284 0 15 6.716 15 15 0 8.284-6.716 15-15 15z" fill="#cde2ff"/><path d="m106 120h-61c-8.291 0-15 6.709-15 15v130.005l91-40.005v-90c0-8.291-6.709-15-15-15z" fill="#ff6673"/><path d="m376 270h-75v-45c0-5.537-3.047-10.62-7.925-13.228-4.849-2.593-10.811-2.3-15.396.747l-66.679 44.459v-31.978c0-5.537-3.047-10.62-7.925-13.228-2.208-1.174-4.655-1.573-7.075-1.577-2.924-.004-5.819.656-8.32 2.324l-66.68 44.459v-31.978c0-12.008-13.37-19.072-23.32-12.48l-91 60c-4.175 2.783-6.68 7.47-6.68 12.48v212c0 8.291 6.709 15 15 15h181 15l30-30h30l30 30h75c8.291 0 15-6.709 15-15v-212c0-8.291-6.709-15-15-15z" fill="#ffdf40"/><path d="m241 482h30l30 30h75c8.291 0 15-6.709 15-15v-212c0-8.291-6.709-15-15-15h-75v-45c0-5.537-3.047-10.62-7.925-13.228-4.849-2.593-10.811-2.3-15.396.747l-66.679 44.459v-31.978c0-5.537-3.047-10.62-7.925-13.228-2.208-1.174-4.655-1.573-7.075-1.577v301.805h15z" fill="#ffbe40"/><path d="m76 90c-8.291 0-15-6.709-15-15 0-24.814 20.186-45 45-45h60c8.276 0 15-6.724 15-15 0-8.291 6.709-15 15-15s15 6.709 15 15c0 24.814-20.186 45-45 45h-60c-8.276 0-15 6.724-15 15 0 8.291-6.709 15-15 15z" fill="#4d6699"/><path d="m166 451h-90c-8.291 0-15-6.709-15-15v-60c0-8.291 6.709-15 15-15h90c8.291 0 15 6.709 15 15v60c0 8.291-6.709 15-15 15z" fill="#4d6699"/><path d="m406 0c-57.891 0-105 47.109-105 105s47.109 105 105 105 106-47.109 106-105-48.109-105-106-105z" fill="#7ed96c"/><path d="m512 105c0-57.891-48.109-105-106-105v210c57.891 0 106-47.109 106-105z" fill="#48b348"/><path d="m446.605 79.395c-5.859-5.859-15.352-5.859-21.211 0l-19.394 19.394-15 15-11.895-11.895c-5.859-5.859-15.352-5.859-21.211 0s-5.859 15.352 0 21.211l22.5 22.5c2.93 2.93 6.768 4.395 10.605 4.395s7.676-1.465 10.605-4.395l4.395-4.395 40.605-40.605c5.861-5.859 5.861-15.351.001-21.21z" fill="#f9f4f3"/><path d="m446.605 79.395c-5.859-5.859-15.352-5.859-21.211 0l-19.394 19.394v42.422l40.605-40.605c5.86-5.86 5.86-15.352 0-21.211z" fill="#f0e6e1"/><path d="m301 512h-90v-136c0-8.284 6.716-15 15-15h60c8.284 0 15 6.716 15 15z" fill="#4d6699"/></g></svg>