<svg id="Layer_1" enable-background="new 0 0 512 512" height="64" viewBox="0 0 512 512" width="64" xmlns="http://www.w3.org/2000/svg"><g><path d="m264.983 301.156h-241.515c-12.961 0-23.468-10.507-23.468-23.468v-85.613c0-12.961 10.507-23.468 23.468-23.468h241.515c12.961 0 23.468 10.507 23.468 23.468v85.613c0 12.961-10.507 23.468-23.468 23.468z" fill="#88c3e0"/><path d="m265.787 168.607h-30.905c12.517 0 22.664 10.88 22.664 24.301v83.948c0 13.421-10.147 24.301-22.664 24.301h30.905c12.517 0 22.664-10.88 22.664-24.301v-83.948c0-13.422-10.147-24.301-22.664-24.301z" fill="#6eabc9"/><path d="m128.773 420.314h30.905v29.875h-30.905z" fill="#43809f"/><path d="m508 512h-504c-2.209 0-4-1.791-4-4v-22.905c0-2.209 1.791-4 4-4h504c2.209 0 4 1.791 4 4v22.905c0 2.209-1.791 4-4 4z" fill="#43809f"/><path d="m287.195 63.84h-285.628l17.729-53.281c2.102-6.294 8.159-10.559 14.989-10.559h220.459c6.83 0 12.888 4.265 14.989 10.559z" fill="#29cef6"/><path d="m269.444 10.559c-2.102-6.294-8.159-10.559-14.989-10.559h-30.905c6.83 0 12.888 4.265 14.989 10.559l17.461 53.281h30.905z" fill="#22b5ed"/><path d="m265.787 173.07h-243.123c-12.517 0-22.664-10.147-22.664-22.664v-78.293c0-12.517 10.147-22.664 22.664-22.664h243.123c12.517 0 22.664 10.147 22.664 22.664v78.294c0 12.516-10.147 22.663-22.664 22.663z" fill="#a9dbf5"/><path d="m265.787 49.449h-30.905c12.517 0 22.664 10.147 22.664 22.664v78.294c0 12.517-10.147 22.664-22.664 22.664h30.905c12.517 0 22.664-10.147 22.664-22.664v-78.294c0-12.517-10.147-22.664-22.664-22.664z" fill="#88c3e0"/><path d="m30.905 138.044v-53.569c0-2.276 1.845-4.121 4.121-4.121h218.398c2.276 0 4.121 1.845 4.121 4.121v53.569c0 2.276-1.845 4.121-4.121 4.121h-218.398c-2.276 0-4.121-1.845-4.121-4.121z" fill="#43809f"/><path d="m78.287 113.32c-8.534 0-15.453-6.918-15.453-15.453v-17.513h30.905v17.513c0 8.535-6.918 15.453-15.452 15.453z" fill="#f78e36"/><path d="m129.803 113.32c-8.534 0-15.453-6.918-15.453-15.453v-17.513h30.905v17.513c.001 8.535-6.918 15.453-15.452 15.453z" fill="#f78e36"/><path d="m30.905 261.666v-53.569c0-2.276 1.845-4.121 4.121-4.121h218.398c2.276 0 4.121 1.845 4.121 4.121v53.569c0 2.276-1.845 4.121-4.121 4.121h-218.398c-2.276 0-4.121-1.845-4.121-4.121z" fill="#43809f"/><path d="m78.287 236.942c-8.534 0-15.453-6.918-15.453-15.453v-17.513h30.905v17.513c0 8.534-6.918 15.453-15.452 15.453z" fill="#f78e36"/><path d="m129.803 236.942c-8.534 0-15.453-6.918-15.453-15.453v-17.513h30.905v17.513c.001 8.534-6.918 15.453-15.452 15.453z" fill="#f78e36"/><path d="m265.787 420.314h-243.123c-12.517 0-22.664-10.147-22.664-22.664v-78.294c0-12.517 10.147-22.664 22.664-22.664h243.123c12.517 0 22.664 10.147 22.664 22.664v78.294c0 12.517-10.147 22.664-22.664 22.664z" fill="#a9dbf5"/><path d="m265.787 296.692h-30.905c12.517 0 22.664 10.147 22.664 22.664v78.294c0 12.517-10.147 22.664-22.664 22.664h30.905c12.517 0 22.664-10.147 22.664-22.664v-78.294c0-12.517-10.147-22.664-22.664-22.664z" fill="#88c3e0"/><path d="m30.905 385.288v-53.569c0-2.276 1.845-4.121 4.121-4.121h218.398c2.276 0 4.121 1.845 4.121 4.121v53.569c0 2.276-1.845 4.121-4.121 4.121h-218.398c-2.276-.001-4.121-1.845-4.121-4.121z" fill="#43809f"/><g fill="#f78e36"><path d="m78.287 360.563c-8.534 0-15.453-6.918-15.453-15.453v-17.513h30.905v17.513c0 8.535-6.918 15.453-15.452 15.453z"/><path d="m129.803 360.563c-8.534 0-15.453-6.918-15.453-15.453v-17.513h30.905v17.513c.001 8.535-6.918 15.453-15.452 15.453z"/><path d="m190.583 481.095v30.905h-92.716v-30.905h30.906v-30.906h30.905v30.906z"/></g><path d="m378.77 104.069c-62.124 1.116-113.669 45.537-125.749 104.354-.231 1.127-.906 2.113-1.885 2.718l-34.16 21.1c-1.963 1.213-1.963 4.068 0 5.28l34.16 21.1c.979.605 1.653 1.59 1.885 2.717 12.236 59.572 64.954 104.376 128.146 104.376 72.573 0 131.345-59.089 130.83-131.781-.511-72.022-61.215-131.157-133.227-129.864z" fill="#f3f3f3"/><path d="m378.77 104.07c-4.469.08-8.881.392-13.23.909 64 7.716 115.082 62.913 115.55 128.953.478 67.459-50.105 123.194-115.391 130.87 5.073.598 10.233.911 15.466.911 72.573 0 131.345-59.089 130.83-131.782-.509-72.02-61.213-131.155-133.225-129.861z" fill="#e4e4e4"/><g fill="#f78e36"><path d="m420.343 172.876c-1.09-20.999-18.424-37.779-39.463-38.202-20.421-.434-37.967 14.515-40.787 34.72-.258 1.849-.389 3.739-.389 5.618 0 4.143 3.358 7.5 7.5 7.5s7.5-3.357 7.5-7.5c0-1.188.083-2.38.245-3.545 1.746-12.514 12.492-21.802 25.11-21.802.172 0 .346.002.518.005 13.214.267 24.101 10.801 24.785 23.983.365 7.034-2.097 13.712-6.932 18.805-4.838 5.095-11.366 7.901-18.38 7.901-4.142 0-7.5 3.357-7.5 7.5v34.347c0 4.143 3.358 7.5 7.5 7.5s7.5-3.357 7.5-7.5v-27.534c8.27-1.54 15.816-5.628 21.758-11.886 7.697-8.105 11.615-18.727 11.035-29.91z"/><path d="m381.374 260.916c-4.142 0-7.5 3.357-7.5 7.5v3.592c0 4.143 3.358 7.5 7.5 7.5s7.5-3.357 7.5-7.5v-3.592c0-4.143-3.358-7.5-7.5-7.5z"/></g><g fill="#43809f"><path d="m381.452 302.783c-4.142 0-7.5 3.357-7.5 7.5v5.547c0 4.143 3.358 7.5 7.5 7.5s7.5-3.357 7.5-7.5v-5.547c0-4.142-3.358-7.5-7.5-7.5z"/><path d="m351.795 302.783c-4.142 0-7.5 3.357-7.5 7.5v5.547c0 4.143 3.358 7.5 7.5 7.5s7.5-3.357 7.5-7.5v-5.547c0-4.142-3.358-7.5-7.5-7.5z"/><path d="m411.483 302.783c-4.142 0-7.5 3.357-7.5 7.5v5.547c0 4.143 3.358 7.5 7.5 7.5s7.5-3.357 7.5-7.5v-5.547c0-4.142-3.358-7.5-7.5-7.5z"/></g></g></svg>