<svg id="Layer_1" enable-background="new 0 0 512.117 512.117" height="64" viewBox="0 0 512.117 512.117" width="64" xmlns="http://www.w3.org/2000/svg"><g><path d="m256.059 0c-1.521 0-3.065.03-4.589.087-30.593 1.162-59.196 14.061-80.541 36.319-21.332 22.245-33.04 51.359-32.966 81.979.088 36.219 16.453 69.891 44.899 92.383 8.096 6.401 12.739 15.878 12.739 26v25h120.913v-24.904c0-10.175 4.663-19.703 12.794-26.139 28.5-22.561 44.845-56.324 44.845-92.63.001-65.118-52.976-118.095-118.094-118.095z" fill="#ffd422"/><path d="m316.515 236.864c0-10.175 4.663-19.703 12.794-26.139 28.5-22.561 44.845-56.324 44.845-92.63 0-65.118-52.977-118.095-118.095-118.095h-.001v261.769h60.457z" fill="#ff9f22"/><path d="m.06 512.117h326.643l167.764-81.727c10.761-5.242 17.59-16.164 17.59-28.135 0-21.575-21.319-36.679-41.673-29.525l-169.886 59.714h-133.134 101.265c17.601 0 31.869-14.268 31.869-31.869 0-17.601-14.268-31.869-31.869-31.869h-139.883c-38.754 0-75.922 15.395-103.325 42.799l-25.361 25.36z" fill="#ffcebf"/><path d="m195.602 236.864v38.618l18.574 38.579h83.764l18.575-38.579v-38.618z" fill="#e1ebf0"/><path d="m256.058 236.864v77.197h41.882l18.575-38.579v-38.618z" fill="#b4d2d7"/><g><path d="m63.367 103.349h44.594v30h-44.594z" fill="#fff79f"/></g><g><path d="m93.491 10.859h30v44.594h-30z" fill="#fff79f" transform="matrix(.5 -.866 .866 .5 25.532 110.535)"/></g><g><path d="m86.194 188.542h44.594v30h-44.594z" fill="#fff79f" transform="matrix(.866 -.5 .5 .866 -87.236 81.516)"/></g><g><path d="m404.152 103.349h44.594v30h-44.594z" fill="#fff79f"/></g><g><path d="m381.324 18.156h44.594v30h-44.594z" fill="#fff79f" transform="matrix(.866 -.5 .5 .866 37.498 206.254)"/></g><g><path d="m388.621 181.244h30v44.594h-30z" fill="#fff79f" transform="matrix(.5 -.866 .866 .5 25.539 451.318)"/></g><g><path d="m404.152 103.349h44.594v30h-44.594z" fill="#ffd422"/></g><g><path d="m381.324 18.156h44.594v30h-44.594z" fill="#ffd422" transform="matrix(.866 -.5 .5 .866 37.498 206.254)"/></g><g><path d="m388.621 181.244h30v44.594h-30z" fill="#ffd422" transform="matrix(.5 -.866 .866 .5 25.539 451.318)"/></g><g fill="#ffbfab"><path d="m470.383 372.73-169.886 59.714h-44.439v79.673h70.645l167.764-81.727c10.761-5.242 17.59-16.164 17.59-28.135-.001-21.575-21.319-36.679-41.674-29.525z"/><path d="m268.628 432.444c17.601 0 31.869-14.268 31.869-31.869 0-17.601-14.268-31.869-31.869-31.869h-12.57v63.738z"/></g></g></svg>