<svg id="filled_outline" height="64" viewBox="0 0 512 512" width="64" xmlns="http://www.w3.org/2000/svg" data-name="filled outline"><path d="m104 376v112h40v-32l72-80z" fill="#ffb0a1"/><path d="m56 368v24a32 32 0 0 0 32 32h40l24-24v-32z" fill="#ff9178"/><path d="m328 376h-272a32 32 0 0 1 -32-32v-18.3344a125.66544 125.66544 0 0 1 13.26686-56.19932l.00005-.0001a125.66551 125.66551 0 0 1 112.39864-69.46618h84.6689a125.66551 125.66551 0 0 1 112.39864 69.46618v.0001a125.66544 125.66544 0 0 1 13.26691 56.19932v18.3344a32 32 0 0 1 -32 32z" fill="#ef5e3b"/><rect fill="#548aff" height="224" rx="16" width="208" x="280" y="24"/><path d="m48 383.19507v8.80493a40.04521 40.04521 0 0 0 40 40h8v56a7.99977 7.99977 0 0 0 8 8h40a7.99977 7.99977 0 0 0 8-8v-28.93018l67.56274-75.06982h108.43726a40.04521 40.04521 0 0 0 40-40v-18.33447a134.52288 134.52288 0 0 0 -12.80127-57.082l-14.46777 6.833a118.42034 118.42034 0 0 1 11.26904 50.249v18.33447a24.0275 24.0275 0 0 1 -24 24h-16v-48a7.99927 7.99927 0 0 0 -3.2002-6.3999l-32-24a7.99948 7.99948 0 0 0 -4.7998-1.6001h-24v16h21.3335l26.6665 20v44h-104v-40.00024l19.2002 14.40014a7.99948 7.99948 0 0 0 4.7998 1.6001h40v-16h-37.3335l-22.4875-16.86548 25.47778-25.47778-11.31348-11.31348-32 32a7.99877 7.99877 0 0 0 -2.3433 5.65674v56h-120a24.0275 24.0275 0 0 1 -24-24v-18.33447c0-1.88916.05762-3.77808.1499-5.66553h28.5361l21.65722 21.65674a7.99877 7.99877 0 0 0 5.65678 2.34326h40v-16h-25.87048l14.39978-24h27.4707v-16h-32a8.00072 8.00072 0 0 0 -6.85986 3.88379l-18.72852 31.21411-16.75488-16.75464a7.99877 7.99877 0 0 0 -5.65674-2.34326h-29.96106a116.93273 116.93273 0 0 1 21.96106-49.52881v17.52881a7.99943 7.99943 0 0 0 3.5625 6.65625l24 16 8.875-13.3125-20.4375-13.625v-30.4353a117.39929 117.39929 0 0 1 64-28.47245v19.87548l-11.31348 11.31352h-28.68652v16h32a7.99877 7.99877 0 0 0 5.65674-2.34326l10.34326-10.34326 16 16v20.68652h16v-24a7.99877 7.99877 0 0 0 -2.34326-5.65674l-21.65674-21.65674v-20.68652h40v24a7.99877 7.99877 0 0 0 2.34326 5.65674l24 24 11.31348-11.31348-21.65674-21.65674v-20.68652h26.33447a118.10692 118.10692 0 0 1 20.28711 1.7583l2.75684-15.76074a134.11308 134.11308 0 0 0 -23.04395-1.99756h-84.66894a133.66675 133.66675 0 0 0 -133.66553 133.66553v18.33447a40.06761 40.06761 0 0 0 32 39.19507zm90.05371 67.45337a7.998 7.998 0 0 0 -2.05371 5.35156v24h-24v-48h16a7.99877 7.99877 0 0 0 5.65674-2.34326l24-24a7.99877 7.99877 0 0 0 2.34326-5.65674v-16h38.03735zm5.94629-66.64844v12.68652l-19.31348 19.31348h-36.68652a24.02687 24.02687 0 0 1 -24-24v-8z"/><path d="m472 16h-176a24.02687 24.02687 0 0 0 -24 24v192a24.02687 24.02687 0 0 0 24 24h176a24.02687 24.02687 0 0 0 24-24v-192a24.02687 24.02687 0 0 0 -24-24zm8 216a8.00917 8.00917 0 0 1 -8 8h-176a8.00917 8.00917 0 0 1 -8-8v-192a8.00917 8.00917 0 0 1 8-8h176a8.00917 8.00917 0 0 1 8 8z"/><path d="m304 48h16v16h-16z"/><path d="m336 48h80v16h-80z"/><path d="m304 80h16v16h-16z"/><path d="m336 80h32v16h-32z"/><path d="m384 80h48v16h-48z"/><path d="m304 112h16v16h-16z"/><path d="m336 112h56v16h-56z"/><path d="m304 144h16v16h-16z"/><path d="m336 144h32v16h-32z"/><path d="m304 208h16v16h-16z"/><path d="m336 208h32v16h-32z"/><path d="m432 48h16v16h-16z"/><path d="m304 176h16v16h-16z"/><path d="m336 176h72v16h-72z"/><path d="m424 176h16v16h-16z"/></svg>