<svg height="64" viewBox="0 0 512 512" width="64" xmlns="http://www.w3.org/2000/svg"><g id="Flat"><rect fill="#eedc9a" height="192" rx="16" width="192" x="24" y="296"/><path d="m216 312v32h-192v-32a15.99552 15.99552 0 0 1 16-16h160a15.99552 15.99552 0 0 1 16 16z" fill="#eebe33"/><rect fill="#eedc9a" height="192" rx="16" width="192" x="160" y="24"/><path d="m352 40v32h-192v-32a15.99555 15.99555 0 0 1 16-16h160a15.99552 15.99552 0 0 1 16 16z" fill="#eebe33"/><path d="m184 160h32v32h-32z" fill="#349966"/><path d="m240 160h32v32h-32z" fill="#349966"/><path d="m296 160h32v32h-32z" fill="#349966"/><g fill="#eebe33"><path d="m288 120h48v16h-48z"/><path d="m304 96h32v16h-32z"/><path d="m232 120h48v16h-48z"/><path d="m248 96h32v16h-32z"/><path d="m176 120h48v16h-48z"/><path d="m192 96h32v16h-32z"/></g><circle cx="184" cy="48" fill="#e44042" r="8"/><circle cx="208" cy="48" fill="#e88604" r="8"/><circle cx="232" cy="48" fill="#349966" r="8"/><circle cx="48" cy="320" fill="#e44042" r="8"/><circle cx="72" cy="320" fill="#e88604" r="8"/><circle cx="96" cy="320" fill="#349966" r="8"/><path d="m64 432h128a0 0 0 0 1 0 0v32a0 0 0 0 1 0 0h-128a16 16 0 0 1 -16-16 16 16 0 0 1 16-16z" fill="#8acce7"/><path d="m64 376h128a0 0 0 0 1 0 0v32a0 0 0 0 1 0 0h-128a16 16 0 0 1 -16-16 16 16 0 0 1 16-16z" fill="#8acce7"/><circle cx="64" cy="392" fill="#e44042" r="16"/><circle cx="64" cy="448" fill="#e44042" r="16"/><rect fill="#eedc9a" height="192" rx="16" width="192" x="296" y="296"/><path d="m488 312v32h-192v-32a15.99548 15.99548 0 0 1 16-16h160a15.99548 15.99548 0 0 1 16 16z" fill="#eebe33"/><circle cx="320" cy="320" fill="#e44042" r="8"/><circle cx="344" cy="320" fill="#e88604" r="8"/><circle cx="368" cy="320" fill="#349966" r="8"/><path d="m320 376h56v56h-56z" fill="#349966"/><path d="m408 376h56v56h-56z" fill="#e44042"/><path d="m320 448h32v16h-32z" fill="#eebe33"/><path d="m360 448h16v16h-16z" fill="#eebe33"/><path d="m408 448h32v16h-32z" fill="#eebe33"/><path d="m448 448h16v16h-16z" fill="#eebe33"/><path d="m392 248h-128v-32h-16v32h-128a7.99977 7.99977 0 0 0 -8 8v40h16v-32h256v32h16v-40a7.99977 7.99977 0 0 0 -8-8z" fill="#8acce7"/></g></svg>