<?xml version="1.0" encoding="UTF-8"?>
<svg xmlns="http://www.w3.org/2000/svg" xmlns:xlink="http://www.w3.org/1999/xlink" width="80pt" height="80pt" viewBox="0 0 128 128" version="1.1">
<g id="surface1">
<path style=" stroke:none;fill-rule:nonzero;fill:rgb(85.490196%,93.72549%,96.470588%);fill-opacity:1;" d="M 96.628906 30.113281 L 95.867188 41.402344 L 88.535156 45.492188 C 81.304688 49.488281 72.613281 49.832031 65.085938 46.429688 C 57.5625 43.011719 48.867188 43.359375 41.640625 47.363281 L 32.851562 52.234375 L 31.394531 30.441406 L 79.226562 30.199219 L 92.277344 30.136719 Z M 96.628906 30.113281 "/>
<path style=" stroke:none;fill-rule:nonzero;fill:rgb(38.431373%,74.509804%,100%);fill-opacity:1;" d="M 95.867188 41.402344 L 91.039062 113.859375 L 35.875 97.546875 L 32.851562 52.234375 L 41.636719 47.363281 C 48.867188 43.359375 57.5625 43.011719 65.085938 46.429688 C 72.613281 49.832031 81.304688 49.488281 88.535156 45.492188 Z M 95.867188 41.402344 "/>
<path style=" stroke:none;fill-rule:nonzero;fill:rgb(1.176471%,66.666667%,43.529412%);fill-opacity:1;" d="M 92.277344 71.445312 L 127.082031 71.445312 C 127.109375 102.648438 101.835938 127.972656 70.628906 128 C 70.59375 128 70.558594 128 70.527344 128 L 41.839844 128 Z M 92.277344 71.445312 "/>
<path style=" stroke:none;fill-rule:nonzero;fill:rgb(86.666667%,18.039216%,16.862745%);fill-opacity:1;" d="M 90.101562 71.8125 L 119.28125 71.8125 L 119.28125 71.445312 C 119.28125 98.371094 97.453125 120.199219 70.527344 120.199219 Z M 90.101562 71.8125 "/>
<path style=" stroke:none;fill-rule:nonzero;fill:rgb(0%,0%,0%);fill-opacity:1;" d="M 31.371094 84.710938 L 27.019531 84.710938 C 27.019531 76.570312 29.773438 68.542969 34.769531 62.117188 L 35.035156 61.777344 L 38.476562 64.441406 L 38.207031 64.785156 C 33.796875 70.457031 31.371094 77.53125 31.371094 84.710938 Z M 31.371094 84.710938 "/>
<path style=" stroke:none;fill-rule:nonzero;fill:rgb(1.176471%,66.666667%,43.529412%);fill-opacity:1;" d="M 9.753906 65.277344 C 20.492188 65.277344 29.191406 73.976562 29.195312 84.710938 C 18.460938 84.710938 9.753906 76.007812 9.753906 65.273438 Z M 9.753906 65.277344 "/>
<path style=" stroke:none;fill-rule:nonzero;fill:rgb(93.72549%,31.764706%,13.333333%);fill-opacity:1;" d="M 27.0625 126.171875 C 22.753906 128.582031 17.464844 128.375 13.359375 125.640625 C 8.261719 122.242188 4.59375 117.085938 3.054688 111.15625 L 1.714844 106.03125 C -0.640625 96.941406 2.3125 87.292969 9.351562 81.078125 L 9.984375 80.523438 C 11.183594 79.464844 12.628906 78.71875 14.1875 78.351562 L 14.796875 78.351562 C 18.484375 82.410156 23.710938 84.722656 29.195312 84.710938 L 29.195312 84.664062 C 30.070312 84.664062 30.917969 84.355469 31.589844 83.792969 L 35.753906 80.3125 C 39.4375 77.246094 44.8125 77.320312 48.410156 80.496094 L 49.039062 81.050781 C 54.683594 86.03125 57.777344 93.296875 57.453125 100.816406 Z M 27.0625 126.171875 "/>
<path style=" stroke:none;fill-rule:nonzero;fill:rgb(100%,85.882353%,43.529412%);fill-opacity:1;" d="M 90.046875 60.960938 C 91.949219 61.753906 93.1875 63.613281 93.1875 65.675781 L 93.1875 74.8125 C 93.203125 86.179688 89.808594 97.296875 83.441406 106.714844 C 73.832031 120.742188 57.597656 128.734375 40.621094 127.800781 C 32.449219 127.421875 24.488281 125.070312 17.421875 120.945312 L 17.121094 120.769531 L 17.121094 112.839844 L 26.753906 112.117188 C 54.078125 110.070312 76.519531 89.730469 81.238281 62.738281 C 81.589844 60.519531 83.671875 59.003906 85.890625 59.359375 C 86.203125 59.40625 86.503906 59.492188 86.796875 59.613281 Z M 90.046875 60.960938 "/>
<path style=" stroke:none;fill-rule:nonzero;fill:rgb(38.431373%,74.509804%,100%);fill-opacity:1;" d="M 66.175781 54.042969 L 61.824219 54.042969 L 61.824219 17.0625 C 61.824219 16.320312 62.203125 15.625 62.832031 15.226562 L 86.757812 0 L 89.097656 3.671875 L 66.175781 18.257812 Z M 66.175781 54.042969 "/>
<path style=" stroke:none;fill-rule:nonzero;fill:rgb(0%,0%,0%);fill-opacity:1;" d="M 98.800781 77.96875 L 103.148438 77.96875 L 103.148438 82.320312 L 98.800781 82.320312 Z M 98.800781 77.96875 "/>
<path style=" stroke:none;fill-rule:nonzero;fill:rgb(0%,0%,0%);fill-opacity:1;" d="M 92.273438 99.722656 L 96.625 99.722656 L 96.625 104.070312 L 92.273438 104.070312 Z M 92.273438 99.722656 "/>
<path style=" stroke:none;fill-rule:nonzero;fill:rgb(0%,0%,0%);fill-opacity:1;" d="M 98.800781 91.019531 L 103.148438 91.019531 L 103.148438 95.371094 L 98.800781 95.371094 Z M 98.800781 91.019531 "/>
</g>
</svg>
