<svg id="Capa_1" enable-background="new 0 0 508.199 508.199" height="64" viewBox="0 0 508.199 508.199" width="64" xmlns="http://www.w3.org/2000/svg"><g><path d="m404.766 493.489-26.84 13.42-51.85-103.71h-47.73v105h-30v-105h-47.73l-52.495 105h-33.55l67.505-135h66.27v-89h30v89h66.27z" fill="#c47e4e"/><path d="m412.122 508.199h-33.551l-52.495-105h-47.73v105h-15v-224h15v89h66.27z" fill="#a05f4b"/><path d="m34.605 227.053h126v94h-126z" fill="#ffdd4a" transform="matrix(.889 -.457 .457 .889 -114.516 74.964)"/><path d="m399.537 198.64c-10.757-20.917-57.366-111.552-64.94-126.281-157.264 80.851-75.448 38.793-232.999 119.8 113.091 219.933-50.222-97.667 64.939 126.289 266.38-136.987 102.132-52.518 233-119.808z" fill="#f9bd2e"/><path d="m399.536 198.639-136.19 70.03v-159.68l71.25-36.63z" fill="#f79311"/><path d="m39.917 224.002h30v144.001h-30z" fill="#f9bd2e" transform="matrix(.889 -.457 .457 .889 -129.276 57.872)"/><path d="m499.545 183.201c-134.003-260.613-78.963-153.57-94.199-183.201-20.246 10.41-86.631 44.545-112.054 57.617 162.22 315.49 56.771 110.41 94.199 183.201 25.46-13.091 82.086-42.207 112.054-57.617z" fill="#f9bd2e"/><circle cx="263.346" cy="252.199" fill="#f1f6ff" r="47"/><path d="m310.346 252.199c0 25.92-21.08 47-47 47v-94c25.92 0 47 21.08 47 47z" fill="#dfe5f2"/></g></svg>