<svg id="Layer_1" height="64" viewBox="0 0 512 512" width="64" xmlns="http://www.w3.org/2000/svg" data-name="Layer 1"><path d="m175.14 205.43h-33.85a10.541 10.541 0 0 0 -4.74 19.96 10.355 10.355 0 0 0 4.74 1.13h33.85a10.434 10.434 0 0 0 4.73-1.12 10.633 10.633 0 0 0 2.72-1.97 10.543 10.543 0 0 0 -7.45-18z" fill="#edb740"/><path d="m184.01 248.25-3.46 6.96h-49.33c1.56-9.66 3.62-18.71 5.33-29.82a10.355 10.355 0 0 0 4.74 1.13h33.85a10.434 10.434 0 0 0 4.73-1.12c1.31 8.44 2.81 15.65 4.14 22.85z" fill="#d8a43d"/><path d="m173.66 39.08-8.71 166.35h-14.24l-7.95-166.35 15.45-13.08z" fill="#ccd3df"/><path d="m326.08 261.885-10.49-21.1a5.89 5.89 0 0 1 -.308-.738 32.933 32.933 0 0 0 -31.182-22.331h-56.19a32.933 32.933 0 0 0 -31.187 22.333 5.89 5.89 0 0 1 -.308.738l-10.49 21.1-10.745-5.342 10.318-20.752a44.93 44.93 0 0 1 42.412-30.075h56.19a44.93 44.93 0 0 1 42.412 30.075l10.318 20.752z" fill="#4a5160"/><path d="m359.73 183.18h48.56v17.74h-48.56z" fill="#edb740"/><path d="m406.74 255.21h-45.35c1.17-19.17 2.01-34.74 2.26-54.29h39.89c.49 19.44 1.81 35.05 3.2 54.29z" fill="#d8a43d"/><path d="m363.46 161.66h40.17c-.17 4.56-.26 16.84-.28 21.52h-39.65c-.04-4.67-.12-16.96-.24-21.52z" fill="#b0b5ca"/><path d="m355.99 98.75v55.76c-5.15-2.29-31.72-2.11-36.44 0v-55.76c4.72 2.1 31.29 2.28 36.44 0z" fill="#b0b5ca"/><path d="m448.47 98.75v55.76c-4.71-2.11-31.28-2.29-36.43 0v-55.76c5.15 2.28 31.72 2.1 36.43 0z" fill="#b0b5ca"/><g fill="#ccd3df"><path d="m476.5 98.78v55.7a14.015 14.015 0 0 1 -28.03.03v-55.76a14.015 14.015 0 0 1 28.03.03z"/><path d="m355.99 91.6h56.05v70.06h-56.05z"/><path d="m319.55 98.78v55.73a14.01 14.01 0 0 1 -28.02-.03v-55.7a14.01 14.01 0 0 1 28.02-.03z"/><path d="m39.33 116.22h87.88c0 54.07-8.83 103.82-19.03 138.99-5.54 19.11-11.49 33.91-16.64 42.76h-16.54c-4.29-6.74-9.14-17.99-13.84-32.63-11.33-35.25-21.83-90.16-21.83-149.12z"/></g><path d="m61.16 265.34h-.01a38.826 38.826 0 0 0 -12.61 25.54l-4.25 50.33a38.973 38.973 0 0 1 22.62-28.06l8.09-15.18c-4.29-6.74-9.14-17.99-13.84-32.63z" fill="#4a5160"/><path d="m463.46 290.88a38.949 38.949 0 0 0 -38.8-35.67h-316.48c-5.54 19.11-11.49 33.91-16.64 42.76l4.09 11.94h333.89a38.948 38.948 0 0 1 38.18 31.25z" fill="#6d7486"/><path d="m476.36 443.78-7.18-85.14h-426.36l-7.18 85.14a38.944 38.944 0 0 0 38.8 42.22h363.12a38.944 38.944 0 0 0 38.8-42.22z" fill="#5fa8ed"/><path d="m66.91 320.93v-7.78a38.973 38.973 0 0 0 -22.62 28.06l-1.47 17.43h51.9l.39-37.71z" fill="#5fa8ed"/><path d="m467.7 341.16a38.948 38.948 0 0 0 -38.18-31.25h-334.89l-1.22 48.73h375.77z" fill="#4689d3"/><path d="m65.64 443.78 7.18-85.14h-30l-7.18 85.14a38.944 38.944 0 0 0 38.8 42.22h30a38.944 38.944 0 0 1 -38.8-42.22z" fill="#4689d3"/><path d="m81.16 265.34c-11.33-35.25-21.83-90.16-21.83-149.12h-20c0 58.96 10.5 113.87 21.83 149.12 4.7 14.64 9.55 25.89 13.84 32.63h16.54c.546-.939 1.1-1.959 1.666-3.03-3.823-6.864-7.99-16.966-12.046-29.6z" fill="#b0b5ca"/><path d="m185.9 309.91h140.2v128.56h-140.2z" fill="#fea92a"/><path d="m66.91 297.97h32.72v22.96h-32.72z" fill="#edb740"/><path d="m98.41 358.64h-30.69c1.98-14.79 3.39-26.72 3.39-37.71h24.24c0 11.05 1.18 22.92 3.06 37.71z" fill="#d8a43d"/></svg>